<mxfile host="app.diagrams.net" modified="2023-07-29T08:17:58.766Z" agent="Mozilla/5.0 (Windows NT 10.0; Win64; x64; rv:109.0) Gecko/20100101 Firefox/115.0" etag="UCiJ6uKN3hMAllKf7BXO" version="21.6.6" type="device">
  <diagram name="Page-1" id="6-i_96HNfmgbJkJZLi2R">
    <mxGraphModel dx="2899" dy="1117" grid="1" gridSize="10" guides="1" tooltips="1" connect="1" arrows="1" fold="1" page="1" pageScale="1" pageWidth="850" pageHeight="1100" math="0" shadow="0">
      <root>
        <mxCell id="0" />
        <mxCell id="1" parent="0" />
        <mxCell id="lVfdy5WW1XMUdgcxzk2L-1" value="" style="shape=cube;whiteSpace=wrap;html=1;boundedLbl=1;backgroundOutline=1;darkOpacity=0.05;darkOpacity2=0.1;fillColor=#d5e8d4;strokeColor=#82b366;" vertex="1" parent="1">
          <mxGeometry x="-90" y="160" width="200" height="160" as="geometry" />
        </mxCell>
        <mxCell id="lVfdy5WW1XMUdgcxzk2L-7" style="edgeStyle=orthogonalEdgeStyle;rounded=0;orthogonalLoop=1;jettySize=auto;html=1;entryX=0;entryY=0;entryDx=0;entryDy=30;entryPerimeter=0;" edge="1" parent="1" source="lVfdy5WW1XMUdgcxzk2L-4" target="lVfdy5WW1XMUdgcxzk2L-43">
          <mxGeometry relative="1" as="geometry" />
        </mxCell>
        <mxCell id="lVfdy5WW1XMUdgcxzk2L-4" value="Actor" style="shape=umlActor;verticalLabelPosition=bottom;verticalAlign=top;html=1;outlineConnect=0;" vertex="1" parent="1">
          <mxGeometry x="-240" y="220" width="30" height="60" as="geometry" />
        </mxCell>
        <mxCell id="lVfdy5WW1XMUdgcxzk2L-9" value="" style="shape=cube;whiteSpace=wrap;html=1;boundedLbl=1;backgroundOutline=1;darkOpacity=0.05;darkOpacity2=0.1;fillColor=#d5e8d4;strokeColor=#82b366;movable=1;resizable=1;rotatable=1;deletable=1;editable=1;locked=0;connectable=1;" vertex="1" parent="1">
          <mxGeometry x="260" width="560" height="420" as="geometry" />
        </mxCell>
        <mxCell id="lVfdy5WW1XMUdgcxzk2L-12" value="" style="shape=cube;whiteSpace=wrap;html=1;boundedLbl=1;backgroundOutline=1;darkOpacity=0.05;darkOpacity2=0.1;fillColor=#fff2cc;strokeColor=#d6b656;" vertex="1" parent="1">
          <mxGeometry x="380" y="90" width="340" height="281.25" as="geometry" />
        </mxCell>
        <mxCell id="lVfdy5WW1XMUdgcxzk2L-13" value="API" style="text;html=1;align=center;verticalAlign=middle;resizable=0;points=[];autosize=1;strokeColor=none;fillColor=none;" vertex="1" parent="1">
          <mxGeometry x="400" y="111.25" width="40" height="30" as="geometry" />
        </mxCell>
        <mxCell id="lVfdy5WW1XMUdgcxzk2L-14" value="App Server" style="text;html=1;align=center;verticalAlign=middle;resizable=0;points=[];autosize=1;strokeColor=none;fillColor=none;" vertex="1" parent="1">
          <mxGeometry x="280" y="20" width="80" height="30" as="geometry" />
        </mxCell>
        <mxCell id="lVfdy5WW1XMUdgcxzk2L-19" value="" style="shape=cube;whiteSpace=wrap;html=1;boundedLbl=1;backgroundOutline=1;darkOpacity=0.05;darkOpacity2=0.1;fillColor=#d5e8d4;strokeColor=#82b366;" vertex="1" parent="1">
          <mxGeometry x="450" y="500" width="200" height="160" as="geometry" />
        </mxCell>
        <mxCell id="lVfdy5WW1XMUdgcxzk2L-22" value="MongoDB" style="shape=folder;tabWidth=80;tabHeight=20;tabPosition=left;strokeWidth=2;html=1;whiteSpace=wrap;align=center;fillColor=#dae8fc;strokeColor=#6c8ebf;" vertex="1" parent="1">
          <mxGeometry x="500" y="560" width="110" height="60" as="geometry" />
        </mxCell>
        <mxCell id="lVfdy5WW1XMUdgcxzk2L-23" value="DB Server" style="text;html=1;align=center;verticalAlign=middle;resizable=0;points=[];autosize=1;strokeColor=none;fillColor=none;" vertex="1" parent="1">
          <mxGeometry x="470" y="520" width="80" height="30" as="geometry" />
        </mxCell>
        <mxCell id="lVfdy5WW1XMUdgcxzk2L-29" style="edgeStyle=orthogonalEdgeStyle;rounded=0;orthogonalLoop=1;jettySize=auto;html=1;entryX=0.455;entryY=0;entryDx=0;entryDy=0;entryPerimeter=0;" edge="1" parent="1" source="lVfdy5WW1XMUdgcxzk2L-24" target="lVfdy5WW1XMUdgcxzk2L-22">
          <mxGeometry relative="1" as="geometry" />
        </mxCell>
        <mxCell id="lVfdy5WW1XMUdgcxzk2L-30" value="TCP / IP" style="edgeLabel;html=1;align=center;verticalAlign=middle;resizable=0;points=[];" vertex="1" connectable="0" parent="lVfdy5WW1XMUdgcxzk2L-29">
          <mxGeometry x="0.2075" y="-2" relative="1" as="geometry">
            <mxPoint as="offset" />
          </mxGeometry>
        </mxCell>
        <mxCell id="lVfdy5WW1XMUdgcxzk2L-24" value="Prisma&lt;br&gt;Models" style="shape=folder;tabWidth=80;tabHeight=20;tabPosition=left;strokeWidth=2;html=1;whiteSpace=wrap;align=center;fillColor=#dae8fc;strokeColor=#6c8ebf;" vertex="1" parent="1">
          <mxGeometry x="495" y="241.25" width="110" height="70" as="geometry" />
        </mxCell>
        <mxCell id="lVfdy5WW1XMUdgcxzk2L-35" style="edgeStyle=orthogonalEdgeStyle;rounded=0;orthogonalLoop=1;jettySize=auto;html=1;" edge="1" parent="1" source="lVfdy5WW1XMUdgcxzk2L-25" target="lVfdy5WW1XMUdgcxzk2L-24">
          <mxGeometry relative="1" as="geometry" />
        </mxCell>
        <mxCell id="lVfdy5WW1XMUdgcxzk2L-39" style="edgeStyle=orthogonalEdgeStyle;rounded=0;orthogonalLoop=1;jettySize=auto;html=1;" edge="1" parent="1" source="lVfdy5WW1XMUdgcxzk2L-25" target="lVfdy5WW1XMUdgcxzk2L-1">
          <mxGeometry relative="1" as="geometry">
            <Array as="points">
              <mxPoint x="303" y="230" />
              <mxPoint x="303" y="279" />
            </Array>
          </mxGeometry>
        </mxCell>
        <mxCell id="lVfdy5WW1XMUdgcxzk2L-42" value="Response" style="edgeLabel;html=1;align=center;verticalAlign=middle;resizable=0;points=[];" vertex="1" connectable="0" parent="lVfdy5WW1XMUdgcxzk2L-39">
          <mxGeometry x="0.712" y="1" relative="1" as="geometry">
            <mxPoint x="38" y="-10" as="offset" />
          </mxGeometry>
        </mxCell>
        <mxCell id="lVfdy5WW1XMUdgcxzk2L-25" value="Next JS Pages" style="shape=folder;tabWidth=80;tabHeight=20;tabPosition=left;strokeWidth=2;html=1;whiteSpace=wrap;align=center;fillColor=#dae8fc;strokeColor=#6c8ebf;" vertex="1" parent="1">
          <mxGeometry x="495" y="151.25" width="110" height="70" as="geometry" />
        </mxCell>
        <mxCell id="lVfdy5WW1XMUdgcxzk2L-27" style="edgeStyle=orthogonalEdgeStyle;rounded=0;orthogonalLoop=1;jettySize=auto;html=1;dashed=1;dashPattern=12 12;endArrow=none;endFill=0;" edge="1" parent="1" source="lVfdy5WW1XMUdgcxzk2L-26" target="lVfdy5WW1XMUdgcxzk2L-22">
          <mxGeometry relative="1" as="geometry" />
        </mxCell>
        <mxCell id="lVfdy5WW1XMUdgcxzk2L-26" value="MongoDB 6.0" style="whiteSpace=wrap;html=1;shape=mxgraph.basic.document;fillColor=#e1d5e7;strokeColor=#9673a6;" vertex="1" parent="1">
          <mxGeometry x="720" y="540" width="100" height="100" as="geometry" />
        </mxCell>
        <mxCell id="lVfdy5WW1XMUdgcxzk2L-28" value="" style="whiteSpace=wrap;html=1;shape=mxgraph.basic.document;fillColor=#e1d5e7;strokeColor=#9673a6;" vertex="1" parent="1">
          <mxGeometry x="930" y="170" width="190" height="140" as="geometry" />
        </mxCell>
        <mxCell id="lVfdy5WW1XMUdgcxzk2L-32" style="edgeStyle=orthogonalEdgeStyle;rounded=0;orthogonalLoop=1;jettySize=auto;html=1;entryX=1.001;entryY=0.573;entryDx=0;entryDy=0;entryPerimeter=0;dashed=1;dashPattern=12 12;endArrow=none;endFill=0;" edge="1" parent="1" source="lVfdy5WW1XMUdgcxzk2L-31" target="lVfdy5WW1XMUdgcxzk2L-9">
          <mxGeometry relative="1" as="geometry" />
        </mxCell>
        <mxCell id="lVfdy5WW1XMUdgcxzk2L-31" value="&lt;ul&gt;&lt;li&gt;Debian 12&lt;/li&gt;&lt;li&gt;Next JS 13&lt;/li&gt;&lt;li&gt;MongoDB 6&lt;/li&gt;&lt;li&gt;Hosted on Google Cloud&lt;br&gt;&lt;/li&gt;&lt;/ul&gt;" style="text;html=1;align=center;verticalAlign=middle;resizable=0;points=[];autosize=1;strokeColor=none;fillColor=none;" vertex="1" parent="1">
          <mxGeometry x="910" y="190" width="200" height="100" as="geometry" />
        </mxCell>
        <mxCell id="lVfdy5WW1XMUdgcxzk2L-40" style="edgeStyle=orthogonalEdgeStyle;rounded=0;orthogonalLoop=1;jettySize=auto;html=1;entryX=0;entryY=0;entryDx=0;entryDy=32.5;entryPerimeter=0;" edge="1" parent="1" source="lVfdy5WW1XMUdgcxzk2L-1" target="lVfdy5WW1XMUdgcxzk2L-25">
          <mxGeometry relative="1" as="geometry">
            <Array as="points">
              <mxPoint x="303" y="203" />
            </Array>
          </mxGeometry>
        </mxCell>
        <mxCell id="lVfdy5WW1XMUdgcxzk2L-41" value="Request" style="edgeLabel;html=1;align=center;verticalAlign=middle;resizable=0;points=[];" vertex="1" connectable="0" parent="lVfdy5WW1XMUdgcxzk2L-40">
          <mxGeometry x="-0.3074" y="2" relative="1" as="geometry">
            <mxPoint x="-33" y="-10" as="offset" />
          </mxGeometry>
        </mxCell>
        <mxCell id="lVfdy5WW1XMUdgcxzk2L-43" value="Navegador" style="shape=folder;tabWidth=80;tabHeight=20;tabPosition=left;strokeWidth=2;html=1;whiteSpace=wrap;align=center;fillColor=#dae8fc;strokeColor=#6c8ebf;" vertex="1" parent="1">
          <mxGeometry x="-40" y="219.38" width="110" height="60" as="geometry" />
        </mxCell>
        <mxCell id="lVfdy5WW1XMUdgcxzk2L-44" value="" style="whiteSpace=wrap;html=1;shape=mxgraph.basic.document;fillColor=#e1d5e7;strokeColor=#9673a6;" vertex="1" parent="1">
          <mxGeometry x="-480" y="200" width="190" height="120" as="geometry" />
        </mxCell>
        <mxCell id="lVfdy5WW1XMUdgcxzk2L-45" value="&lt;ul&gt;&lt;li&gt;Linux, Mac OS o Windows&lt;/li&gt;&lt;li&gt;Chromium o Firefox&lt;/li&gt;&lt;li&gt;Inter i3 o superior, 4GB RAM&lt;br&gt;&lt;/li&gt;&lt;/ul&gt;" style="text;html=1;align=center;verticalAlign=middle;resizable=0;points=[];autosize=1;strokeColor=none;fillColor=none;" vertex="1" parent="1">
          <mxGeometry x="-510" y="220" width="220" height="80" as="geometry" />
        </mxCell>
      </root>
    </mxGraphModel>
  </diagram>
</mxfile>
